<?xml version="1.0" standalone="no"?>
<!DOCTYPE svg PUBLIC "-//W3C//DTD SVG 20010904//EN"
 "http://www.w3.org/TR/2001/REC-SVG-20010904/DTD/svg10.dtd">
<svg version="1.0" xmlns="http://www.w3.org/2000/svg"
 width="384pt" height="256pt" viewBox="0 0 1152.000000 768.000000"
 preserveAspectRatio="xMidYMid meet">

<g transform="translate(0.000000,768.000000) scale(0.100000,-0.100000)"
fill="#000000" stroke="none">
<path d="M7612 7094 c-66 -20 -109 -51 -162 -115 -43 -52 -49 -65 -55 -121 -3
-36 -1 -85 5 -113 6 -27 14 -62 17 -77 5 -27 97 -140 191 -235 28 -28 58 -63
68 -77 16 -25 16 -28 0 -45 -19 -21 -184 -123 -231 -143 -16 -7 -74 -15 -128
-18 -53 -3 -98 -9 -100 -15 -3 -16 179 -18 216 -3 104 44 266 144 279 174 16
35 -5 75 -82 152 -88 88 -168 185 -181 219 -20 53 -30 128 -23 182 6 48 13 60
71 121 57 61 70 70 127 85 63 17 65 17 132 -5 38 -13 74 -27 81 -32 6 -5 37
-12 69 -15 46 -5 56 -3 52 8 -3 8 -27 17 -53 22 -27 5 -54 12 -60 17 -16 12
-144 50 -169 49 -11 -1 -40 -7 -64 -15z"/>
<path d="M2087 6833 c-11 -10 -8 -139 3 -169 11 -27 23 -107 39 -244 9 -70 22
-129 53 -228 11 -35 26 -105 33 -155 33 -217 69 -400 120 -602 14 -55 32 -131
41 -170 19 -85 60 -175 80 -175 18 0 18 20 -2 48 -22 32 -53 126 -65 201 -5
36 -21 104 -35 151 -37 127 -65 271 -109 555 -9 55 -24 124 -34 155 -25 72
-47 184 -61 295 -6 50 -16 110 -22 135 -7 25 -14 76 -16 114 l-4 69 39 -31
c21 -16 72 -67 113 -112 41 -45 163 -172 271 -283 199 -206 310 -337 392 -462
26 -38 55 -81 65 -95 10 -14 52 -89 93 -168 41 -79 91 -161 111 -182 21 -22
38 -45 38 -51 0 -7 15 -35 34 -63 18 -28 44 -70 56 -93 22 -42 40 -56 40 -30
0 31 52 115 97 158 79 75 251 174 363 208 41 13 89 28 105 33 37 13 105 25
205 37 193 24 250 31 299 41 79 15 278 12 368 -5 43 -8 92 -15 108 -15 41 0
311 -93 345 -119 16 -11 68 -44 116 -73 203 -123 231 -131 258 -74 9 18 29 74
45 123 33 101 89 210 135 264 17 20 79 92 137 160 58 68 114 138 123 156 9 18
41 58 71 89 31 31 72 77 92 103 20 25 54 64 74 86 51 54 138 161 172 211 54
79 97 98 97 42 0 -11 8 -33 17 -51 15 -27 18 -66 21 -232 3 -188 -3 -282 -29
-450 -5 -38 -15 -101 -21 -140 -21 -137 -51 -240 -94 -323 -24 -46 -42 -88
-38 -93 7 -13 31 -11 57 3 66 37 172 49 241 29 196 -58 203 -61 303 -156 99
-93 179 -188 208 -246 10 -19 23 -41 30 -49 11 -14 34 -78 71 -205 26 -86 25
-351 0 -451 -32 -125 -147 -289 -276 -394 -92 -76 -264 -168 -430 -230 -41
-15 -113 -45 -160 -65 -99 -42 -284 -93 -455 -125 -66 -12 -142 -28 -170 -36
-62 -17 -272 -34 -414 -34 -58 0 -149 -4 -201 -10 -52 -5 -149 -15 -215 -20
-66 -6 -199 -23 -295 -38 -160 -24 -199 -26 -465 -25 -187 0 -308 5 -340 12
-27 7 -86 17 -130 23 -73 9 -114 16 -215 33 -150 26 -279 68 -375 120 -44 24
-125 66 -180 94 -217 109 -289 158 -415 279 -70 67 -105 109 -125 150 -15 31
-31 65 -36 74 -5 10 -9 26 -9 35 0 10 -6 35 -14 58 -45 128 -46 140 -46 409 0
283 -2 273 58 338 16 17 22 33 18 44 -6 15 -11 13 -41 -16 -64 -62 -65 -69
-65 -368 0 -278 2 -294 46 -415 8 -20 14 -45 14 -54 0 -17 23 -71 62 -148 24
-47 158 -187 208 -218 19 -11 51 -33 70 -48 39 -30 107 -69 255 -145 55 -28
136 -70 180 -94 132 -71 270 -109 535 -149 36 -6 110 -18 165 -27 79 -14 162
-18 390 -18 264 0 306 2 465 26 96 15 229 32 295 38 66 5 163 15 215 20 52 6
143 10 201 10 141 0 351 17 419 35 81 21 189 43 240 50 75 11 284 72 377 110
49 20 129 52 178 71 133 52 336 161 410 220 136 108 260 278 298 409 17 58 20
99 21 245 0 152 -3 185 -22 250 -32 108 -57 177 -69 192 -6 7 -21 33 -33 58
-28 54 -71 108 -167 205 -129 131 -158 148 -359 206 -68 20 -203 7 -252 -24
-14 -9 -3 20 31 83 22 39 39 95 56 185 7 33 16 79 21 103 6 23 10 61 10 85 1
23 8 69 16 102 11 43 17 131 21 310 4 212 2 258 -12 305 -9 30 -19 69 -22 85
-5 30 -39 75 -56 75 -11 0 -55 -45 -92 -95 -64 -86 -149 -192 -181 -225 -69
-72 -181 -203 -229 -270 -28 -37 -99 -124 -158 -193 -159 -183 -194 -241 -253
-417 -20 -58 -40 -109 -45 -114 -5 -6 -23 -3 -46 8 -53 25 -221 125 -263 157
-38 29 -323 129 -368 129 -15 0 -62 7 -105 15 -91 17 -309 20 -388 5 -52 -11
-122 -20 -294 -40 -139 -17 -206 -32 -337 -78 -69 -25 -75 -28 -218 -113 -122
-72 -175 -119 -208 -184 l-20 -39 -33 57 c-19 32 -41 71 -50 87 -9 16 -32 46
-50 67 -19 21 -67 101 -107 178 -41 77 -89 163 -108 190 -155 229 -242 333
-473 571 -97 99 -196 205 -221 234 -25 29 -74 77 -109 107 -61 50 -89 62 -104
46z"/>
<path d="M8170 6453 c-35 -32 -73 -131 -64 -167 5 -23 3 -23 -71 -28 -66 -4
-80 -9 -103 -31 -24 -24 -24 -27 -7 -33 12 -5 22 -1 31 11 10 13 31 19 84 23
68 5 72 4 103 -25 39 -37 84 -53 149 -53 73 0 57 23 -22 32 -44 5 -70 14 -84
28 l-20 20 27 0 c76 0 137 64 137 145 0 50 -14 72 -57 90 -50 21 -68 19 -103
-12z m87 -15 c92 -33 29 -178 -77 -178 -30 0 -39 4 -43 21 -8 29 21 114 49
144 27 29 27 29 71 13z"/>
<path d="M8938 6371 c-126 -34 -225 -110 -257 -197 -12 -30 -21 -68 -21 -85 0
-41 -16 -29 -25 18 -7 43 -78 197 -94 208 -29 18 -26 -12 10 -80 39 -76 77
-193 88 -274 8 -60 31 -67 31 -9 0 64 27 187 53 238 42 84 176 155 315 167 39
4 61 10 59 17 -6 18 -87 16 -159 -3z"/>
<path d="M9800 6365 c-13 -7 -61 -66 -105 -131 -57 -84 -96 -131 -135 -160
-90 -69 -95 -68 -114 23 -34 161 -59 244 -71 244 -17 0 -17 -36 1 -82 9 -24
20 -66 24 -94 26 -158 39 -181 89 -170 46 10 148 94 189 157 21 30 55 82 77
116 22 34 45 61 51 62 6 0 17 7 24 15 19 23 0 36 -30 20z"/>
<path d="M10205 6338 c-3 -8 -4 -70 -3 -138 2 -88 7 -125 16 -128 15 -5 18
263 2 273 -6 3 -13 0 -15 -7z"/>
<path d="M10689 6261 c-75 -75 -77 -78 -88 -146 -16 -95 -3 -160 38 -197 29
-26 38 -28 112 -28 60 0 80 3 77 13 -3 8 -30 13 -75 15 -63 3 -73 6 -98 32
-24 25 -28 38 -29 87 0 112 18 147 117 228 34 28 47 58 30 68 -5 2 -42 -30
-84 -72z"/>
<path d="M11135 6205 c-19 -20 -35 -40 -35 -46 0 -6 -12 -9 -27 -7 -32 4 -44
-21 -14 -29 12 -3 21 -7 21 -9 0 -2 -7 -29 -15 -61 -28 -105 8 -213 71 -213
32 0 30 7 -13 45 -32 28 -37 37 -37 81 -1 27 5 70 13 97 13 44 16 47 46 47 63
0 109 75 69 114 -23 24 -40 20 -79 -19z m65 -17 c0 -19 -32 -48 -52 -48 -25 0
-23 9 9 42 25 26 43 29 43 6z"/>
<path d="M11426 5998 c-3 -7 -17 -49 -32 -93 -20 -59 -28 -101 -28 -157 l-1
-78 64 -62 c62 -61 63 -63 57 -105 -7 -51 -58 -157 -95 -196 -30 -34 -147 -95
-209 -111 -24 -6 -43 -15 -42 -21 4 -36 229 52 276 108 38 46 97 177 102 229
4 47 4 48 -59 114 l-64 66 1 62 c1 38 11 90 28 137 14 41 26 83 26 92 0 20
-19 32 -24 15z"/>
<path d="M4775 5123 c-18 -17 -19 -37 -5 -64 8 -14 21 -19 56 -19 38 0 46 4
56 25 15 32 -3 53 -56 65 -27 6 -40 4 -51 -7z m76 -29 c10 -13 10 -17 -2 -25
-31 -19 -54 -6 -38 22 12 23 22 24 40 3z"/>
<path d="M8751 5086 c-26 -60 -114 -152 -173 -182 -25 -13 -91 -36 -145 -51
-86 -24 -116 -28 -250 -29 -86 0 -153 -5 -153 -10 0 -18 68 -26 190 -22 139 5
280 38 380 88 50 25 127 96 157 146 10 17 12 14 12 -21 1 -51 46 -236 67 -278
10 -18 43 -64 75 -103 48 -59 67 -75 123 -98 37 -16 69 -26 72 -23 12 11 -9
29 -60 51 -55 25 -143 112 -176 176 -28 54 -59 179 -71 287 -6 54 -15 102 -19
107 -5 4 -17 -13 -29 -38z"/>
<path d="M3825 4953 c-19 -19 -19 -63 1 -91 31 -45 114 -18 114 38 0 45 -85
84 -115 53z m75 -38 c10 -12 10 -18 0 -30 -26 -31 -59 -11 -40 25 13 24 23 25
40 5z"/>
<path d="M8466 4720 c-14 -22 -26 -45 -26 -52 0 -7 -22 -60 -50 -118 -27 -58
-50 -111 -50 -118 0 -8 -15 -41 -34 -75 -19 -34 -46 -96 -60 -137 -15 -41 -49
-122 -75 -180 -27 -58 -65 -140 -85 -184 -48 -104 -157 -285 -222 -367 -90
-114 -222 -205 -334 -233 -249 -61 -458 -43 -635 54 -89 49 -124 86 -176 185
-43 82 -58 100 -72 86 -4 -4 10 -39 31 -77 22 -38 42 -78 46 -90 20 -64 197
-169 346 -203 141 -34 309 -26 494 23 105 27 254 142 344 264 73 99 197 315
236 412 19 47 46 105 60 130 13 25 44 97 67 160 23 63 52 131 65 150 12 19 32
64 44 100 12 35 32 82 45 105 12 22 28 58 35 80 7 22 21 52 31 67 21 29 24 44
10 52 -5 3 -20 -12 -35 -34z"/>
<path d="M4946 4678 c-3 -7 -7 -56 -9 -109 -8 -151 -92 -372 -162 -424 -79
-60 -206 -107 -273 -103 -43 3 -49 7 -95 63 -26 33 -54 72 -62 87 -7 15 -29
47 -49 70 -68 81 -136 171 -136 180 0 4 6 8 13 8 6 0 23 6 37 13 14 8 40 17
58 20 18 4 51 15 74 25 24 11 84 29 133 41 50 12 108 26 130 32 62 15 205 71
205 80 0 20 -25 17 -93 -11 -40 -17 -104 -37 -143 -45 -108 -23 -184 -44 -231
-65 -24 -11 -61 -22 -81 -26 -20 -4 -41 -10 -47 -14 -5 -5 -26 -12 -45 -17
-29 -8 -35 -14 -38 -39 -2 -24 6 -41 40 -80 56 -63 129 -158 148 -193 27 -48
91 -131 113 -146 30 -21 122 -19 185 4 66 24 177 86 201 112 30 33 71 117 108
224 28 81 36 120 40 206 4 74 2 108 -6 113 -6 4 -13 1 -15 -6z"/>
<path d="M9418 4037 c-41 -40 -101 -105 -133 -145 -32 -41 -103 -117 -158
-170 -318 -308 -747 -743 -831 -842 -53 -63 -103 -118 -111 -123 -8 -4 -15
-14 -15 -21 0 -8 -8 -20 -17 -27 -25 -21 -210 -307 -282 -435 -61 -111 -115
-233 -106 -242 13 -13 35 13 51 60 9 29 49 109 87 178 72 128 255 408 281 429
22 18 43 -29 82 -183 l32 -130 -41 -60 c-23 -34 -99 -158 -169 -276 -70 -118
-154 -251 -186 -295 -33 -44 -72 -100 -87 -125 -15 -25 -41 -62 -57 -82 -25
-32 -27 -39 -14 -44 10 -4 30 5 50 20 34 26 250 258 431 464 86 99 100 111
107 93 6 -18 20 -154 37 -365 4 -50 11 -81 19 -84 15 -5 17 101 3 192 -6 33
-15 119 -21 189 l-11 128 82 97 c158 186 316 378 394 477 76 98 79 100 134
112 31 7 68 16 82 19 23 5 28 0 56 -63 58 -125 58 -122 -49 -280 -52 -76 -128
-192 -168 -258 -41 -66 -108 -167 -149 -225 -41 -58 -132 -193 -202 -300 -71
-107 -145 -217 -166 -244 -95 -123 -151 -205 -146 -210 4 -3 12 -6 19 -6 36 0
255 200 610 557 l392 394 6 -73 c14 -162 24 -133 -121 -349 -72 -108 -167
-254 -211 -325 -43 -71 -101 -163 -128 -205 -68 -104 -159 -293 -151 -313 9
-22 65 -21 158 3 89 24 480 148 487 156 3 3 1 10 -4 15 -6 6 -90 -17 -224 -60
-219 -71 -346 -104 -374 -98 -13 2 -3 29 47 124 64 125 138 245 391 636 l150
231 16 -68 c19 -79 48 -107 36 -34 -25 151 -27 135 22 208 177 261 393 561
462 641 101 117 233 309 225 327 -9 26 -93 -44 -283 -237 -101 -102 -249 -258
-329 -348 -80 -89 -148 -160 -150 -158 -3 3 -16 60 -29 128 -14 68 -32 146
-41 175 l-16 52 53 78 c147 214 132 199 213 219 49 12 111 17 195 18 82 0 121
3 119 10 -9 27 -218 27 -331 0 -27 -6 -20 5 86 162 117 172 280 439 337 553
28 54 31 66 19 78 -41 41 -201 -89 -570 -462 -157 -159 -315 -326 -350 -369
l-64 -80 -100 -23 c-54 -13 -119 -26 -143 -30 l-44 -6 44 59 c23 32 101 137
171 232 71 95 178 248 239 339 61 91 150 218 198 282 90 121 251 370 251 389
0 28 -23 16 -92 -51z m0 -49 c-8 -13 -34 -54 -58 -93 -24 -38 -83 -122 -130
-185 -48 -63 -137 -190 -198 -282 -61 -92 -178 -256 -259 -365 -82 -109 -159
-215 -173 -235 -13 -20 -33 -39 -43 -42 -11 -2 -16 -9 -13 -15 4 -6 -44 -85
-106 -176 l-113 -166 -13 31 c-7 17 -19 63 -27 103 -9 40 -27 96 -41 125 l-26
53 107 127 c59 70 288 304 509 521 223 220 442 445 494 508 88 107 123 141 90
91z m402 -318 c-73 -145 -402 -662 -460 -723 -13 -14 -270 -55 -277 -44 -4 6
-11 4 -17 -5 -10 -14 -48 -29 -103 -41 -41 -9 58 104 352 402 289 293 487 469
528 471 4 0 -6 -27 -23 -60z m124 -742 c-29 -51 -79 -117 -149 -198 -85 -99
-169 -214 -377 -516 l-125 -182 -9 105 c-5 58 -6 107 -2 109 4 3 67 71 140
152 115 128 516 542 526 542 2 0 0 -6 -4 -12z m-680 -125 c-87 -127 -94 -135
-94 -103 0 13 -14 54 -32 92 -17 37 -29 70 -26 73 4 4 161 31 201 34 14 1 1
-23 -49 -96z m-425 -35 c-63 -81 -254 -313 -363 -442 -123 -144 -116 -143
-135 -16 l-12 73 47 71 c26 39 85 124 131 189 81 113 86 117 121 117 20 1 80
12 132 25 52 13 99 24 103 24 5 1 -6 -18 -24 -41z m371 -348 c17 -84 30 -159
28 -166 -4 -21 -769 -785 -858 -858 l-75 -61 38 50 c53 69 109 151 248 360 66
99 170 255 232 347 62 91 140 211 174 265 111 177 165 248 174 231 5 -9 22
-84 39 -168z m-884 -215 l6 -50 -93 -105 c-148 -169 -334 -373 -365 -400 -20
-18 -15 -7 19 40 77 106 108 154 242 380 71 118 138 229 149 245 l21 30 7 -45
c4 -25 10 -67 14 -95z"/>
<path d="M2389 2968 c-75 -101 -171 -354 -234 -613 -63 -264 -126 -498 -142
-529 -28 -57 -63 -86 -102 -86 -49 0 -133 41 -159 77 -49 70 -96 251 -112 438
-6 66 -15 145 -20 175 -5 30 -16 96 -25 146 -8 51 -15 106 -15 123 0 29 -24
91 -35 91 -8 0 -156 -322 -170 -370 -4 -14 -32 -77 -62 -140 -30 -63 -67 -151
-83 -195 -15 -44 -44 -113 -64 -153 -20 -40 -49 -106 -63 -145 -53 -148 -127
-274 -222 -379 -37 -40 -41 -49 -26 -54 21 -8 39 10 110 107 69 94 111 173
170 324 26 66 62 149 80 185 18 36 40 90 50 120 10 30 46 116 80 190 35 74 66
146 70 160 4 14 22 57 40 95 18 39 46 97 61 130 l28 60 6 -50 c4 -27 15 -95
24 -150 9 -55 25 -176 36 -270 10 -93 23 -193 30 -220 20 -91 68 -216 94 -246
37 -41 101 -70 165 -76 112 -10 136 36 246 476 80 315 167 596 203 650 9 14
26 43 36 63 10 21 22 35 26 33 4 -2 10 -57 13 -122 20 -387 36 -533 97 -923
16 -102 34 -257 40 -345 16 -241 24 -295 47 -295 11 0 14 6 9 23 -3 12 -13
112 -21 222 -8 110 -31 301 -49 425 -65 430 -72 495 -93 895 -5 98 -22 185
-36 185 -2 0 -14 -15 -28 -32z"/>
<path d="M3690 2980 c-36 -4 -110 -15 -165 -24 -179 -29 -309 -46 -367 -46
-107 0 -287 -47 -273 -70 8 -13 48 -13 62 1 17 17 80 28 228 39 132 10 221 22
412 56 45 7 97 14 115 14 46 0 79 11 75 23 -5 15 -12 15 -87 7z"/>
<path d="M4675 2960 c-92 -8 -162 -42 -254 -121 -69 -60 -77 -72 -136 -194
-64 -132 -79 -184 -90 -310 -11 -124 30 -392 77 -500 22 -52 91 -133 128 -149
87 -40 240 -46 374 -15 134 32 220 82 359 209 83 76 113 124 138 224 21 84 21
88 5 183 -18 106 -113 404 -149 467 -34 60 -112 100 -198 100 -88 1 -94 -17
-8 -26 100 -9 155 -42 191 -112 35 -68 118 -337 135 -433 14 -86 14 -98 -2
-165 -22 -93 -59 -151 -143 -225 -136 -121 -204 -160 -337 -193 -76 -19 -106
-22 -192 -16 -127 7 -171 24 -223 86 -112 133 -162 534 -94 737 9 27 36 90 61
141 40 82 55 101 128 166 99 88 152 111 280 119 121 8 204 -4 299 -44 71 -29
83 -39 120 -90 39 -56 66 -74 66 -46 0 17 -48 83 -81 114 -37 33 -166 84 -239
94 -73 9 -114 9 -215 -1z"/>
<path d="M3117 2779 c-23 -77 -29 -104 -38 -169 -5 -41 -12 -175 -16 -297 -6
-209 -7 -222 -25 -227 -22 -5 -16 -26 8 -26 10 0 14 -14 14 -55 0 -53 34 -391
48 -484 4 -24 13 -46 21 -49 15 -5 15 8 -13 233 -8 67 -18 173 -22 236 l-7
116 64 6 c57 6 437 85 448 94 3 2 0 8 -6 14 -11 11 -48 5 -223 -36 -83 -20
-228 -45 -257 -45 -23 0 -23 1 -23 146 0 177 15 364 37 462 12 54 13 76 5 84
-8 8 -12 8 -15 -3z"/>
<path d="M5707 2752 c-4 -5 2 -54 13 -109 23 -120 50 -331 50 -396 0 -26 7
-105 15 -175 8 -70 16 -145 18 -167 7 -63 31 -136 60 -182 34 -53 69 -58 109
-15 62 66 191 371 295 696 l16 50 17 -35 c10 -19 27 -79 38 -134 12 -55 31
-148 43 -206 43 -215 96 -309 172 -309 40 0 153 103 213 195 68 104 203 358
260 488 24 54 59 128 78 164 21 38 32 71 27 76 -13 13 -42 -35 -119 -201 -83
-179 -210 -417 -276 -520 -48 -73 -155 -172 -188 -172 -25 0 -84 75 -97 123
-35 124 -50 192 -64 282 -24 152 -76 300 -106 300 -13 0 -25 -33 -126 -334
-73 -216 -198 -461 -237 -461 -15 0 -61 80 -70 123 -13 58 -36 256 -47 407
-13 167 -39 378 -51 414 -6 16 -10 39 -10 51 0 27 -24 62 -33 47z"/>
<path d="M3785 1630 c-38 -10 -128 -39 -200 -65 -71 -26 -195 -69 -275 -95
-197 -66 -225 -79 -211 -93 8 -8 19 -8 44 1 17 8 91 33 162 58 72 24 189 65
260 90 72 26 172 58 223 72 51 14 91 30 89 35 -5 17 -17 16 -92 -3z"/>
</g>
</svg>
